<svg xmlns="http://www.w3.org/2000/svg" xmlns:xlink="http://www.w3.org/1999/xlink" version="1.1" width="24" height="24" x="0px" y="0px" viewBox="0 0 24 24" style="enable-background:new 0 0 24 24;" xml:space="preserve">
  <g id="files">
      <path d="M13 0H6a2 2 0 0 0-2 2 2 2 0 0 0-2 2v10a2 2 0 0 0 2 2h7a2 2 0 0 0 2-2 2 2 0 0 0 2-2V2a2 2 0 0 0-2-2zm0 13V4a2 2 0 0 0-2-2H5a1 1 0 0 1 1-1h7a1 1 0 0 1 1 1v10a1 1 0 0 1-1 1zM3 4a1 1 0 0 1 1-1h7a1 1 0 0 1 1 1v10a1 1 0 0 1-1 1H4a1 1 0 0 1-1-1V4z" style="fill: #000000;"/>
  </g>
  <g id="Layer_1">
  </g>
</svg>
